[Header]
FileType HTR
DataType HTRS
FileVersion 1
NumSegments 64
NumFrames 4
DataFrameRate 30
EulerRotationOrder ZYX
CalibrationUnits mm
RotationUnits Degrees
GlobalAxisofGravity Y
BoneLengthAxis Y
ScaleFactor 1.0
[SegmentNames&Hierarchy]
Hips	GLOBAL
Spine	Hips
Spine1	Spine
Spine2	Spine1
Neck	Spine2
Head	Neck
LeftEye	Head
RightEye	Head
LeftShoulder	Spine2
LeftArm	LeftShoulder
LeftForeArm	LeftArm
LeftHand	LeftForeArm
LeftHandThumb1	LeftHand
LeftHandThumb2	LeftHandThumb1
LeftHandThumb3	LeftHandThumb2
LeftHandThumb4	LeftHandThumb3
LeftHandIndex1	LeftHand
LeftHandIndex2	LeftHandIndex1
LeftHandIndex3	LeftHandIndex2
LeftHandIndex4	LeftHandIndex3
LeftHandMiddle1	LeftHand
LeftHandMiddle2	LeftHandMiddle1
LeftHandMiddle3	LeftHandMiddle2
LeftHandMiddle4	LeftHandMiddle3
LeftHandRing1	LeftHand
LeftHandRing2	LeftHandRing1
LeftHandRing3	LeftHandRing2
LeftHandRing4	LeftHandRing3
LeftHandPinky1	LeftHand
LeftHandPinky2	LeftHandPinky1
LeftHandPinky3	LeftHandPinky2
LeftHandPinky4	LeftHandPinky3
RightShoulder	Spine2
RightArm	RightShoulder
RightForeArm	RightArm
RightHand	RightForeArm
RightHandPinky1	RightHand
RightHandPinky2	RightHandPinky1
RightHandPinky3	RightHandPinky2
RightHandPinky4	RightHandPinky3
RightHandRing1	RightHand
RightHandRing2	RightHandRing1
RightHandRing3	RightHandRing2
RightHandRing4	RightHandRing3
RightHandMiddle1	RightHand
RightHandMiddle2	RightHandMiddle1
RightHandMiddle3	RightHandMiddle2
RightHandMiddle4	RightHandMiddle3
RightHandIndex1	RightHand
RightHandIndex2	RightHandIndex1
RightHandIndex3	RightHandIndex2
RightHandIndex4	RightHandIndex3
RightHandThumb1	RightHand
RightHandThumb2	RightHandThumb1
RightHandThumb3	RightHandThumb2
RightHandThumb4	RightHandThumb3
LeftUpLeg	Hips
LeftLeg	LeftUpLeg
LeftFoot	LeftLeg
LeftToeBase	LeftFoot
RightUpLeg	Hips
RightLeg	RightUpLeg
RightFoot	RightLeg
RightToeBase	RightFoot
[BasePosition]
Hips	0	0	0	0	0	0	1
Spine	0	0	0	0	0	0	1
Spine1	0	0	0	0	0	0	1
Spine2	0	0	0	0	0	0	1
Neck	0	0	0	0	0	0	1
Head	0	0	0	0	0	0	1
LeftEye	0	0	0	0	0	0	1
RightEye	0	0	0	0	0	0	1
LeftShoulder	0	0	0	0	0	0	1
LeftArm	0	0	0	0	0	0	1
LeftForeArm	0	0	0	0	0	0	1
LeftHand	0	0	0	0	0	0	1
LeftHandThumb1	0	0	0	0	0	0	1
LeftHandThumb2	0	0	0	0	0	0	1
LeftHandThumb3	0	0	0	0	0	0	1
LeftHandThumb4	0	0	0	0	0	0	1
LeftHandIndex1	0	0	0	0	0	0	1
LeftHandIndex2	0	0	0	0	0	0	1
LeftHandIndex3	0	0	0	0	0	0	1
LeftHandIndex4	0	0	0	0	0	0	1
LeftHandMiddle1	0	0	0	0	0	0	1
LeftHandMiddle2	0	0	0	0	0	0	1
LeftHandMiddle3	0	0	0	0	0	0	1
LeftHandMiddle4	0	0	0	0	0	0	1
LeftHandRing1	0	0	0	0	0	0	1
LeftHandRing2	0	0	0	0	0	0	1
LeftHandRing3	0	0	0	0	0	0	1
LeftHandRing4	0	0	0	0	0	0	1
LeftHandPinky1	0	0	0	0	0	0	1
LeftHandPinky2	0	0	0	0	0	0	1
LeftHandPinky3	0	0	0	0	0	0	1
LeftHandPinky4	0	0	0	0	0	0	1
RightShoulder	0	0	0	0	0	0	1
RightArm	0	0	0	0	0	0	1
RightForeArm	0	0	0	0	0	0	1
RightHand	0	0	0	0	0	0	1
RightHandPinky1	0	0	0	0	0	0	1
RightHandPinky2	0	0	0	0	0	0	1
RightHandPinky3	0	0	0	0	0	0	1
RightHandPinky4	0	0	0	0	0	0	1
RightHandRing1	0	0	0	0	0	0	1
RightHandRing2	0	0	0	0	0	0	1
RightHandRing3	0	0	0	0	0	0	1
RightHandRing4	0	0	0	0	0	0	1
RightHandMiddle1	0	0	0	0	0	0	1
RightHandMiddle2	0	0	0	0	0	0	1
RightHandMiddle3	0	0	0	0	0	0	1
RightHandMiddle4	0	0	0	0	0	0	1
RightHandIndex1	0	0	0	0	0	0	1
RightHandIndex2	0	0	0	0	0	0	1
RightHandIndex3	0	0	0	0	0	0	1
RightHandIndex4	0	0	0	0	0	0	1
RightHandThumb1	0	0	0	0	0	0	1
RightHandThumb2	0	0	0	0	0	0	1
RightHandThumb3	0	0	0	0	0	0	1
RightHandThumb4	0	0	0	0	0	0	1
LeftUpLeg	0	0	0	0	0	0	1
LeftLeg	0	0	0	0	0	0	1
LeftFoot	0	0	0	0	0	0	1
LeftToeBase	0	0	0	0	0	0	1
RightUpLeg	0	0	0	0	0	0	1
RightLeg	0	0	0	0	0	0	1
RightFoot	0	0	0	0	0	0	1
RightToeBase	0	0	0	0	0	0	1
[Hips]
32	-0.03519954532	1034.220947	17.92357254	-3.084007263	-5.913519382	-3.459304571	1.0
33	-0.1886813939	1034.236938	18.19224358	-3.112987518	-5.915922642	-3.44654727	1.0
34	-0.3336214721	1034.24292	18.43833733	-3.142507792	-5.914525986	-3.434890509	1.0
35	-0.4657418132	1034.242676	18.6497345	-3.171657324	-5.90612936	-3.423177004	1.0
[Spine]
32	0	101.8159943	1.315000057	3.457391739	1.450970292	2.773941278	1.0
33	0	101.8159943	1.315000057	3.461309433	1.48098278	2.78289938	1.0
34	0	101.8159943	1.315000057	3.463935614	1.512521744	2.793248415	1.0
35	0	101.8159943	1.315000057	3.467800617	1.542803407	2.805352449	1.0
[Spine1]
32	0	100.8349991	-10.00800037	1.178987145	0.3350847065	1.539281964	1.0
33	0	100.8349991	-10.00800037	1.1790061	0.3475340903	1.542649388	1.0
34	0	100.8349991	-10.00800037	1.178769469	0.3606296182	1.546557784	1.0
35	0	100.8349991	-10.00800037	1.179162145	0.3732310236	1.551091552	1.0
[Spine2]
32	0	91	-13.73399925	1.153756857	0.3576737046	1.542298675	1.0
33	0	91	-13.73399925	1.153778791	0.3701125979	1.545589805	1.0
34	0	91	-13.73399925	1.153544188	0.3832020462	1.54942286	1.0
35	0	91	-13.73399925	1.153939724	0.3958008289	1.553885102	1.0
[Neck]
32	0	166.7169952	-25.16200066	5.578135967	-0.165894717	0.4743419886	1.0
33	0	166.7169952	-25.16200066	5.581709862	-0.175216496	0.4702722728	1.0
34	0	166.7169952	-25.16200066	5.585587025	-0.1861206889	0.4714824259	1.0
35	0	166.7169952	-25.16200066	5.588147163	-0.1963644475	0.4782820344	1.0
[Head]
32	0	96.17900085	16.84999847	-7.810861588	1.225533009	-0.3120650351	1.0
33	0	96.17900085	16.84999847	-7.831833839	1.19126296	-0.3044660091	1.0
34	0	96.17900085	16.84999847	-7.869823456	1.157952547	-0.2967966795	1.0
35	0	96.17900085	16.84999847	-7.923132896	1.135384679	-0.2893750668	1.0
[LeftEye]
32	30.6760006	64.09500122	92.83599854	0	0	0	1.0
33	30.6760006	64.09500122	92.83599854	0	0	0	1.0
34	30.6760006	64.09500122	92.83599854	0	0	0	1.0
35	30.6760006	64.09500122	92.83599854	0	0	0	1.0
[RightEye]
32	-30.6760006	64.09500122	92.83499908	0	0	0	1.0
33	-30.6760006	64.09500122	92.83499908	0	0	0	1.0
34	-30.6760006	64.09500122	92.83499908	0	0	0	1.0
35	-30.6760006	64.09500122	92.83499908	0	0	0	1.0
[LeftShoulder]
32	45.70400238	109.4599991	-26.28000069	4.880198956	-16.59420013	-13.1473875	1.0
33	45.70400238	109.4599991	-26.28000069	4.878235817	-16.57883263	-13.14232063	1.0
34	45.70400238	109.4599991	-26.28000069	4.875557423	-16.56199837	-13.13391972	1.0
35	45.70400238	109.4599991	-26.28000069	4.872457027	-16.54638863	-13.12278557	1.0
[LeftArm]
32	105.923996	-5.24600029	-22.32099915	19.96988297	-3.440677166	-71.001297	1.0
33	105.923996	-5.24600029	-22.32099915	19.94475555	-3.464391708	-71.02015686	1.0
34	105.923996	-5.24600029	-22.32099915	19.92641258	-3.481255293	-71.04387665	1.0
35	105.923996	-5.24600029	-22.32099915	19.91792297	-3.494665146	-71.0750885	1.0
[LeftForeArm]
32	278.414978	-0.0009999999311	0	-1.158253144e-05	-1.436834931	-0.0001933027816	1.0
33	278.414978	-0.0009999999311	0	-6.071744338e-06	-1.434306026	-0.0002031301701	1.0
34	278.414978	-0.0009999999311	0	-2.090956286e-06	-1.432878971	-0.0002050238108	1.0
35	278.414978	-0.0009999999311	0	-8.371563126e-06	-1.434314728	-0.0001941166411	1.0
[LeftHand]
32	283.2879944	0	0	-32.74393845	-4.330020905	-4.289624214	1.0
33	283.2879944	0	0	-32.71578598	-4.33190918	-4.295022488	1.0
34	283.2879944	0	0	-32.70754242	-4.3479352	-4.297857285	1.0
35	283.2879944	0	0	-32.7146225	-4.370007992	-4.288681984	1.0
[LeftHandThumb1]
32	24.6609993	-15.75	26.8239994	-0.4889889657	2.201390743	4.818541527	1.0
33	24.6609993	-15.75	26.8239994	-0.4889889657	2.201390743	4.818541527	1.0
34	24.6609993	-15.75	26.8239994	-0.4889889657	2.201390743	4.818541527	1.0
35	24.6609993	-15.75	26.8239994	-0.4889889657	2.201390743	4.818541527	1.0
[LeftHandThumb2]
32	32.29800034	-18.64699936	18.64699936	19.88581276	19.96446037	23.26738167	1.0
33	32.29800034	-18.64699936	18.64699936	19.88581276	19.96446037	23.26738167	1.0
34	32.29800034	-18.64699936	18.64699936	19.88581276	19.96446037	23.26738167	1.0
35	32.29800034	-18.64699936	18.64699936	19.88581276	19.96446037	23.26738167	1.0
[LeftHandThumb3]
32	26.52600098	-15.31499958	15.31499958	-13.14535904	5.551738262	7.967928886	1.0
33	26.52600098	-15.31499958	15.31499958	-13.14535904	5.551738262	7.967928886	1.0
34	26.52600098	-15.31499958	15.31499958	-13.14535904	5.551738262	7.967928886	1.0
35	26.52600098	-15.31499958	15.31499958	-13.14535904	5.551738262	7.967928886	1.0
[LeftHandThumb4]
32	19.54599953	-11.28499985	11.28499985	0	0	0	1.0
33	19.54599953	-11.28499985	11.28499985	0	0	0	1.0
34	19.54599953	-11.28499985	11.28499985	0	0	0	1.0
35	19.54599953	-11.28499985	11.28499985	0	0	0	1.0
[LeftHandIndex1]
32	91.09299469	-5.170999527	22.60099792	0.1480516791	-0.9618676901	-7.594518185	1.0
33	91.09299469	-5.170999527	22.60099792	0.1480516791	-0.9618676901	-7.594518185	1.0
34	91.09299469	-5.170999527	22.60099792	0.1480516791	-0.9618676901	-7.594518185	1.0
35	91.09299469	-5.170999527	22.60099792	0.1480516791	-0.9618676901	-7.594518185	1.0
[LeftHandIndex2]
32	36.76399994	0	0	-0.2667043209	1.745171905	-17.37646866	1.0
33	36.76399994	0	0	-0.2667043209	1.745171905	-17.37646866	1.0
34	36.76399994	0	0	-0.2667043209	1.745171905	-17.37646866	1.0
35	36.76399994	0	0	-0.2667043209	1.745171905	-17.37646866	1.0
[LeftHandIndex3]
32	28.83100128	0	0	-0.05742863193	0.817338407	-8.038370132	1.0
33	28.83100128	0	0	-0.05742863193	0.817338407	-8.038370132	1.0
34	28.83100128	0	0	-0.05742863193	0.817338407	-8.038370132	1.0
35	28.83100128	0	0	-0.05742863193	0.817338407	-8.038370132	1.0
[LeftHandIndex4]
32	23.92700005	0	0	0	0	0	1.0
33	23.92700005	0	0	0	0	0	1.0
34	23.92700005	0	0	0	0	0	1.0
35	23.92700005	0	0	0	0	0	1.0
[LeftHandMiddle1]
32	95.33399963	0	0	-0.7942916155	2.538622379	-15.71737862	1.0
33	95.33399963	0	0	-0.7942916155	2.538622379	-15.71737862	1.0
34	95.33399963	0	0	-0.7942916155	2.538622379	-15.71737862	1.0
35	95.33399963	0	0	-0.7942916155	2.538622379	-15.71737862	1.0
[LeftHandMiddle2]
32	36.98199844	0	0	-0.267610997	1.748071074	-17.40625954	1.0
33	36.98199844	0	0	-0.267610997	1.748071074	-17.40625954	1.0
34	36.98199844	0	0	-0.267610997	1.748071074	-17.40625954	1.0
35	36.98199844	0	0	-0.267610997	1.748071074	-17.40625954	1.0
[LeftHandMiddle3]
32	29.50900078	0	0	-0.2992140949	1.84580946	-18.41413307	1.0
33	29.50900078	0	0	-0.2992140949	1.84580946	-18.41413307	1.0
34	29.50900078	0	0	-0.2992140949	1.84580946	-18.41413307	1.0
35	29.50900078	0	0	-0.2992140949	1.84580946	-18.41413307	1.0
[LeftHandMiddle4]
32	28.3390007	0	0	0	0	0	1.0
33	28.3390007	0	0	0	0	0	1.0
34	28.3390007	0	0	0	0	0	1.0
35	28.3390007	0	0	0	0	0	1.0
[LeftHandRing1]
32	91.04499817	-0.4390000105	-18.65100098	-1.184956431	3.436642885	-21.16632462	1.0
33	91.04499817	-0.4390000105	-18.65100098	-1.184956431	3.436642885	-21.16632462	1.0
34	91.04499817	-0.4390000105	-18.65100098	-1.184956431	3.436642885	-21.16632462	1.0
35	91.04499817	-0.4390000105	-18.65100098	-1.184956431	3.436642885	-21.16632462	1.0
[LeftHandRing2]
32	31.54000092	0	0	-0.3849357069	2.085560799	-20.91281319	1.0
33	31.54000092	0	0	-0.3849357069	2.085560799	-20.91281319	1.0
34	31.54000092	0	0	-0.3849357069	2.085560799	-20.91281319	1.0
35	31.54000092	0	0	-0.3849357069	2.085560799	-20.91281319	1.0
[LeftHandRing3]
32	29.37700081	0	0	-0.2818065584	1.792707562	-17.86576271	1.0
33	29.37700081	0	0	-0.2818065584	1.792707562	-17.86576271	1.0
34	29.37700081	0	0	-0.2818065584	1.792707562	-17.86576271	1.0
35	29.37700081	0	0	-0.2818065584	1.792707562	-17.86576271	1.0
[LeftHandRing4]
32	26.47500038	0	0	0	0	0	1.0
33	26.47500038	0	0	0	0	0	1.0
34	26.47500038	0	0	0	0	0	1.0
35	26.47500038	0	0	0	0	0	1.0
[LeftHandPinky1]
32	80.77799988	-4.887000084	-38.06099701	-1.708467126	5.355370045	-27.1653862	1.0
33	80.77799988	-4.887000084	-38.06099701	-1.708467126	5.355370045	-27.1653862	1.0
34	80.77799988	-4.887000084	-38.06099701	-1.708467126	5.355370045	-27.1653862	1.0
35	80.77799988	-4.887000084	-38.06099701	-1.708467126	5.355370045	-27.1653862	1.0
[LeftHandPinky2]
32	36	0	0	-0.2676221728	1.748113751	-17.40663528	1.0
33	36	0	0	-0.2676221728	1.748113751	-17.40663528	1.0
34	36	0	0	-0.2676221728	1.748113751	-17.40663528	1.0
35	36	0	0	-0.2676221728	1.748113751	-17.40663528	1.0
[LeftHandPinky3]
32	21.14200211	0	0	-0.2408525199	1.660349369	-16.50663185	1.0
33	21.14200211	0	0	-0.2408525199	1.660349369	-16.50663185	1.0
34	21.14200211	0	0	-0.2408525199	1.660349369	-16.50663185	1.0
35	21.14200211	0	0	-0.2408525199	1.660349369	-16.50663185	1.0
[LeftHandPinky4]
32	19.75699997	0	0	0	0	0	1.0
33	19.75699997	0	0	0	0	0	1.0
34	19.75699997	0	0	0	0	0	1.0
35	19.75699997	0	0	0	0	0	1.0
[RightShoulder]
32	-45.70000076	109.4620056	-26.28000069	5.202570915	14.48961735	15.65344524	1.0
33	-45.70000076	109.4620056	-26.28000069	5.206465721	14.48997498	15.67683887	1.0
34	-45.70000076	109.4620056	-26.28000069	5.212809086	14.49533176	15.71224689	1.0
35	-45.70000076	109.4620056	-26.28000069	5.221647263	14.51125622	15.75682735	1.0
[RightArm]
32	-105.9280014	-5.248000145	-22.32099915	30.11342621	2.014497042	62.74660873	1.0
33	-105.9280014	-5.248000145	-22.32099915	30.08077431	2.007696629	62.75872803	1.0
34	-105.9280014	-5.248000145	-22.32099915	30.05330276	1.998904109	62.75539017	1.0
35	-105.9280014	-5.248000145	-22.32099915	30.0324688	1.988233447	62.73583221	1.0
[RightForeArm]
32	-278.414978	0	0	7.835238648e-06	6.75353384	-1.422837158e-06	1.0
33	-278.414978	0	0	-1.388886858e-06	6.745049	-1.024507469e-06	1.0
34	-278.414978	0	0	-2.595896831e-06	6.737481594	-7.752323654e-06	1.0
35	-278.414978	0	0	2.857195341e-06	6.735926628	-1.754742516e-05	1.0
[RightHand]
32	-283.2879944	0	0.0009999999311	-20.07270813	1.84695971	6.633870125	1.0
33	-283.2879944	0	0.0009999999311	-20.09347916	1.854345322	6.630805016	1.0
34	-283.2879944	0	0.0009999999311	-20.12125206	1.85145998	6.620210648	1.0
35	-283.2879944	0	0.0009999999311	-20.15043068	1.828382611	6.589336395	1.0
[RightHandPinky1]
32	-80.76699829	-4.885000229	-38.06000137	-1.507175922	-4.696118355	26.50587463	1.0
33	-80.76699829	-4.885000229	-38.06000137	-1.507175922	-4.696118355	26.50587463	1.0
34	-80.76699829	-4.885000229	-38.06000137	-1.507175922	-4.696118355	26.50587463	1.0
35	-80.76699829	-4.885000229	-38.06000137	-1.507175922	-4.696118355	26.50587463	1.0
[RightHandPinky2]
32	-36	0	0.0009999999311	-0.2127676606	-1.388874292	17.43785858	1.0
33	-36	0	0.0009999999311	-0.2127676606	-1.388874292	17.43785858	1.0
34	-36	0	0.0009999999311	-0.2127676606	-1.388874292	17.43785858	1.0
35	-36	0	0.0009999999311	-0.2127676606	-1.388874292	17.43785858	1.0
[RightHandPinky3]
32	-21.14200211	0	0	-0.1919144988	-1.32059598	16.53641129	1.0
33	-21.14200211	0	0	-0.1919144988	-1.32059598	16.53641129	1.0
34	-21.14200211	0	0	-0.1919144988	-1.32059598	16.53641129	1.0
35	-21.14200211	0	0	-0.1919144988	-1.32059598	16.53641129	1.0
[RightHandPinky4]
32	-19.75699997	0	0	0	0	0	1.0
33	-19.75699997	0	0	0	0	0	1.0
34	-19.75699997	0	0	0	0	0	1.0
35	-19.75699997	0	0	0	0	0	1.0
[RightHandRing1]
32	-91.03599548	-0.4390000105	-18.65100098	-1.045235753	-2.883111477	20.47788429	1.0
33	-91.03599548	-0.4390000105	-18.65100098	-1.045235753	-2.883111477	20.47788429	1.0
34	-91.03599548	-0.4390000105	-18.65100098	-1.045235753	-2.883111477	20.47788429	1.0
35	-91.03599548	-0.4390000105	-18.65100098	-1.045235753	-2.883111477	20.47788429	1.0
[RightHandRing2]
32	-31.54000092	0	0	-0.3066971898	-1.658752441	20.94926834	1.0
33	-31.54000092	0	0	-0.3066971898	-1.658752441	20.94926834	1.0
34	-31.54000092	0	0	-0.3066971898	-1.658752441	20.94926834	1.0
35	-31.54000092	0	0	-0.3066971898	-1.658752441	20.94926834	1.0
[RightHandRing3]
32	-29.37700081	0	0	-0.2245407403	-1.425854325	17.89771652	1.0
33	-29.37700081	0	0	-0.2245407403	-1.425854325	17.89771652	1.0
34	-29.37700081	0	0	-0.2245407403	-1.425854325	17.89771652	1.0
35	-29.37700081	0	0	-0.2245407403	-1.425854325	17.89771652	1.0
[RightHandRing4]
32	-26.47500038	0	0	0	0	0	1.0
33	-26.47500038	0	0	0	0	0	1.0
34	-26.47500038	0	0	0	0	0	1.0
35	-26.47500038	0	0	0	0	0	1.0
[RightHandMiddle1]
32	-95.32500458	0	0	-0.7017197609	-2.087752104	15.0152874	1.0
33	-95.32500458	0	0	-0.7017197609	-2.087752104	15.0152874	1.0
34	-95.32500458	0	0	-0.7017197609	-2.087752104	15.0152874	1.0
35	-95.32500458	0	0	-0.7017197609	-2.087752104	15.0152874	1.0
[RightHandMiddle2]
32	-36.98199844	0	0	-0.213228479	-1.390354872	17.43750381	1.0
33	-36.98199844	0	0	-0.213228479	-1.390354872	17.43750381	1.0
34	-36.98199844	0	0	-0.213228479	-1.390354872	17.43750381	1.0
35	-36.98199844	0	0	-0.213228479	-1.390354872	17.43750381	1.0
[RightHandMiddle3]
32	-29.50900078	0	0	-0.2384106964	-1.470119596	18.44692802	1.0
33	-29.50900078	0	0	-0.2384106964	-1.470119596	18.44692802	1.0
34	-29.50900078	0	0	-0.2384106964	-1.470119596	18.44692802	1.0
35	-29.50900078	0	0	-0.2384106964	-1.470119596	18.44692802	1.0
[RightHandMiddle4]
32	-28.3390007	0	0.0009999999311	0	0	0	1.0
33	-28.3390007	0	0.0009999999311	0	0	0	1.0
34	-28.3390007	0	0.0009999999311	0	0	0	1.0
35	-28.3390007	0	0.0009999999311	0	0	0	1.0
[RightHandIndex1]
32	-91.08300018	-5.167999744	22.60099792	0.1884763837	1.25192976	6.825599194	1.0
33	-91.08300018	-5.167999744	22.60099792	0.1884763837	1.25192976	6.825599194	1.0
34	-91.08300018	-5.167999744	22.60099792	0.1884763837	1.25192976	6.825599194	1.0
35	-91.08300018	-5.167999744	22.60099792	0.1884763837	1.25192976	6.825599194	1.0
[RightHandIndex2]
32	-36.76399994	0	0	-0.2125098109	-1.388050556	17.40767097	1.0
33	-36.76399994	0	0	-0.2125098109	-1.388050556	17.40767097	1.0
34	-36.76399994	0	0	-0.2125098109	-1.388050556	17.40767097	1.0
35	-36.76399994	0	0	-0.2125098109	-1.388050556	17.40767097	1.0
[RightHandIndex3]
32	-28.83100128	0	0	-0.04576345533	-0.650116384	8.053516388	1.0
33	-28.83100128	0	0	-0.04576345533	-0.650116384	8.053516388	1.0
34	-28.83100128	0	0	-0.04576345533	-0.650116384	8.053516388	1.0
35	-28.83100128	0	0	-0.04576345533	-0.650116384	8.053516388	1.0
[RightHandIndex4]
32	-23.92700005	0	0	0	0	0	1.0
33	-23.92700005	0	0	0	0	0	1.0
34	-23.92700005	0	0	0	0	0	1.0
35	-23.92700005	0	0	0	0	0	1.0
[RightHandThumb1]
32	-24.64799881	-15.72700024	26.82600021	-1.658462524	-0.2891407609	-4.221328735	1.0
33	-24.64799881	-15.72700024	26.82600021	-1.658462524	-0.2891407609	-4.221328735	1.0
34	-24.64799881	-15.72700024	26.82600021	-1.658462524	-0.2891407609	-4.221328735	1.0
35	-24.64799881	-15.72700024	26.82600021	-1.658462524	-0.2891407609	-4.221328735	1.0
[RightHandThumb2]
32	-32.29800034	-18.64699936	18.64699936	22.25259209	-23.88967514	-24.282444	1.0
33	-32.29800034	-18.64699936	18.64699936	22.25259209	-23.88967514	-24.282444	1.0
34	-32.29800034	-18.64699936	18.64699936	22.25259209	-23.88967514	-24.282444	1.0
35	-32.29800034	-18.64699936	18.64699936	22.25259209	-23.88967514	-24.282444	1.0
[RightHandThumb3]
32	-26.52600098	-15.31399918	15.31399918	-14.47830296	-6.743862152	-11.36570263	1.0
33	-26.52600098	-15.31399918	15.31399918	-14.47830296	-6.743862152	-11.36570263	1.0
34	-26.52600098	-15.31399918	15.31399918	-14.47830296	-6.743862152	-11.36570263	1.0
35	-26.52600098	-15.31399918	15.31399918	-14.47830296	-6.743862152	-11.36570263	1.0
[RightHandThumb4]
32	-19.54599953	-11.28499985	11.28499985	0	0	0	1.0
33	-19.54599953	-11.28499985	11.28499985	0	0	0	1.0
34	-19.54599953	-11.28499985	11.28499985	0	0	0	1.0
35	-19.54599953	-11.28499985	11.28499985	0	0	0	1.0
[LeftUpLeg]
32	82.07800293	-67.51699829	-15.99599934	-8.341114998	16.42894936	7.907102585	1.0
33	82.07800293	-67.51699829	-15.99599934	-8.286232948	16.45636177	7.917826653	1.0
34	82.07800293	-67.51699829	-15.99599934	-8.239257813	16.48014069	7.92749548	1.0
35	82.07800293	-67.51699829	-15.99599934	-8.198181152	16.49733734	7.933290482	1.0
[LeftLeg]
32	0	-443.7049866	2.845999956	12.31232262	1.376578689	4.51742506	1.0
33	0	-443.7049866	2.845999956	12.301754	1.349043965	4.503378391	1.0
34	0	-443.7049866	2.845999956	12.3020153	1.320088387	4.491837502	1.0
35	0	-443.7049866	2.845999956	12.30408669	1.288501501	4.483448982	1.0
[LeftFoot]
32	0	-444.2789917	-29.8219986	1.057748318	0.6767899394	-7.209057331	1.0
33	0	-444.2789917	-29.8219986	1.050567508	0.6761804223	-7.20506382	1.0
34	0	-444.2789917	-29.8219986	1.042459965	0.675567925	-7.201142788	1.0
35	0	-444.2789917	-29.8219986	1.035636902	0.6752844453	-7.198740005	1.0
[LeftToeBase]
32	0	-87.28699493	107.1060028	-4.923738003	-3.293003147e-06	-3.466020644e-06	1.0
33	0	-87.28699493	107.1060028	-4.927556515	-7.738865975e-07	-3.365918928e-06	1.0
34	0	-87.28699493	107.1060028	-4.935933113	4.889379852e-06	1.102464807e-06	1.0
35	0	-87.28699493	107.1060028	-4.942895412	7.621008535e-06	3.33740627e-06	1.0
[RightUpLeg]
32	-82.07800293	-67.51699829	-15.99599934	0.1602274776	-10.36627007	3.549599171	1.0
33	-82.07800293	-67.51699829	-15.99599934	0.2122782022	-10.36162853	3.540407658	1.0
34	-82.07800293	-67.51699829	-15.99599934	0.2573994994	-10.36667919	3.527631283	1.0
35	-82.07800293	-67.51699829	-15.99599934	0.2949706316	-10.38067341	3.511637449	1.0
[RightLeg]
32	0	-443.7049866	2.861999989	7.420774937	-9.296276093	-4.446739674	1.0
33	0	-443.7049866	2.861999989	7.413712502	-9.29505825	-4.456633091	1.0
34	0	-443.7049866	2.861999989	7.42021656	-9.294099808	-4.460663319	1.0
35	0	-443.7049866	2.861999989	7.437146664	-9.293076515	-4.460172653	1.0
[RightFoot]
32	0	-444.2770081	-29.83799934	-3.650439024	-0.9822974205	3.224038124	1.0
33	0	-444.2770081	-29.83799934	-3.668041706	-0.97409302	3.229918242	1.0
34	0	-444.2770081	-29.83799934	-3.691541195	-0.9638671875	3.232572556	1.0
35	0	-444.2770081	-29.83799934	-3.718630075	-0.9585021138	3.232665777	1.0
[RightToeBase]
32	0	-87.28699493	107.1060028	-7.199558735	-1.02651029e-05	1.392764716e-06	1.0
33	0	-87.28699493	107.1060028	-7.197755814	-1.198260088e-05	5.520352033e-07	1.0
34	0	-87.28699493	107.1060028	-7.197649479	-1.124425035e-05	-2.773491872e-07	1.0
35	0	-87.28699493	107.1060028	-7.198267937	-8.963023902e-06	2.46436656e-07	1.0
[EndOfFile]
